PathFileType	4	(X/Y/Z)	OpenSim_Sub10_CSBaseline_Magnet.trc
DataRate	CameraRate	NumFrames	NumMarkers	Units	OrigDataRate	OrigDataStartFrame	OrigNumFrames
100	100	20	8	m	100	5695	9111
Frame#	Time	torso_imu_offset_imu	pelvis_imu_offset_imu	tibia_r_imu_offset_imu	femur_r_imu_offset_imu	tibia_l_imu_offset_imu	femur_l_imu_offset_imu	toes_r_imu_offset_imu	toes_l_imu_offset_imu
				X1	Y1	Z1	X2	Y2	Z2	X3	Y3	Z3	X4	Y4	Z4	X5	Y5	Z5	X6	Y6	Z6	X7	Y7	Z7	X8		Y8	Z8	

5695	56.94000000	-0.95193450	-0.06971926	0.05420376	-0.70040729	0.12048141	-0.63037293	-0.13639700	-0.78054487	-0.39391344	-0.81107980	-0.26667753	-0.09685081	-0.65555540	0.39916741	0.29831264	-0.66885039	-0.03036009	0.27790968	-0.56751703	-0.61039100	0.32278131	-0.69602355	-0.20475743	-0.39681553
5696	56.95000000	-0.95142633	-0.07046409	0.04953887	-0.70489319	0.12642207	-0.62326017	-0.13937490	-0.76544234	-0.40864079	-0.81316856	-0.24540897	-0.10323547	-0.65106966	0.40800865	0.29441769	-0.66861897	-0.03269702	0.28519650	-0.58065021	-0.60427196	0.30347843	-0.69827399	-0.20934390	-0.39415355
5697	56.96000000	-0.94763347	-0.07871613	0.05469111	-0.70467784	0.13057996	-0.62457032	-0.14932994	-0.75549051	-0.43050415	-0.81870978	-0.22751529	-0.09443606	-0.64752689	0.41191207	0.28644547	-0.66645989	-0.02332801	0.28725310	-0.59729976	-0.60018980	0.27514905	-0.69599137	-0.20856334	-0.39067239
5698	56.97000000	-0.95636464	-0.07866023	0.05187811	-0.70230202	0.13450813	-0.62565236	-0.16550625	-0.74730657	-0.44032613	-0.82700882	-0.21553526	-0.09279947	-0.64952734	0.41215855	0.29340143	-0.66193567	-0.01957716	0.29413806	-0.61205943	-0.58949084	0.24262445	-0.69595152	-0.20447371	-0.39935144
5699	56.98000000	-0.95554272	-0.08236531	0.05288065	-0.70094852	0.13694724	-0.61751969	-0.17244330	-0.74118259	-0.45919260	-0.82876375	-0.20510867	-0.08643270	-0.64487294	0.41940449	0.29263272	-0.65598088	-0.01437132	0.29796766	-0.62697276	-0.57784714	0.21859791	-0.69160029	-0.20720484	-0.39452245
5700	56.99000000	-0.95373534	-0.07846627	0.05882311	-0.70526467	0.14045955	-0.62679664	-0.19175358	-0.73759539	-0.45214511	-0.82995661	-0.19275406	-0.09018905	-0.64317429	0.42490970	0.29194424	-0.65659254	-0.00415921	0.29790156	-0.64158785	-0.57158053	0.17855635	-0.69384591	-0.20874248	-0.39733386
5701	57.00000000	-0.95376031	-0.08544399	0.05161482	-0.70233605	0.13903233	-0.61920741	-0.20888126	-0.73511956	-0.45412074	-0.83847954	-0.18241011	-0.09183204	-0.64339671	0.42061055	0.29077803	-0.65643338	-0.00172682	0.30046013	-0.65368428	-0.55911869	0.14709741	-0.69158476	-0.20689282	-0.39929539
5702	57.01000000	-0.95567069	-0.08894328	0.04845473	-0.69909376	0.14984806	-0.62287937	-0.23458275	-0.73159584	-0.44563852	-0.84048603	-0.17010143	-0.08255705	-0.64504962	0.42236524	0.29973962	-0.65436180	0.00941194	0.30478994	-0.66017509	-0.54903405	0.10693779	-0.69391451	-0.21380194	-0.39890078
5703	57.02000000	-0.95260305	-0.08896175	0.05249817	-0.70089986	0.15136249	-0.62736476	-0.25915458	-0.73602751	-0.44451616	-0.84303293	-0.16208693	-0.07656681	-0.63859903	0.41831809	0.30153324	-0.64731477	0.01317987	0.30968049	-0.66870570	-0.53888648	0.06922986	-0.69587434	-0.21318998	-0.39720827
5704	57.03000000	-0.94438693	-0.09133128	0.04582485	-0.69722883	0.15585477	-0.62923852	-0.28508700	-0.73320863	-0.42158549	-0.84548592	-0.15362224	-0.07480975	-0.64372812	0.42560218	0.30403113	-0.64191633	0.01814665	0.31830994	-0.67209849	-0.52770531	0.02720072	-0.69579470	-0.21371434	-0.40153879
5705	57.04000000	-0.94762247	-0.09309262	0.04878534	-0.70084113	0.15771825	-0.62735445	-0.31623032	-0.72940492	-0.40932274	-0.84745104	-0.14569171	-0.07272841	-0.64004470	0.42913065	0.31015176	-0.64395623	0.02930995	0.32032113	-0.67324363	-0.50907211	-0.00988443	-0.69867512	-0.21513767	-0.39871552
5706	57.05000000	-0.95278500	-0.09590795	0.05071189	-0.69238885	0.15959210	-0.62936391	-0.33969020	-0.72491640	-0.39853428	-0.84790680	-0.13898512	-0.07109526	-0.63238442	0.42695059	0.31286843	-0.63517338	0.03983463	0.32700598	-0.67895961	-0.49516376	-0.04311520	-0.70204277	-0.20883713	-0.39730971
5707	57.06000000	-0.94661202	-0.10431394	0.04868005	-0.69288115	0.16033025	-0.62183951	-0.37338990	-0.71644102	-0.38642157	-0.84992092	-0.12710397	-0.07122770	-0.63854989	0.42960261	0.31888178	-0.63180673	0.04647771	0.32923412	-0.67093253	-0.47801929	-0.07518989	-0.69360521	-0.21081389	-0.40424493
5708	57.07000000	-0.95319842	-0.10608462	0.04895966	-0.69364318	0.17104039	-0.62120580	-0.39907658	-0.71097398	-0.36516731	-0.84863201	-0.12778982	-0.06667471	-0.62734135	0.43407011	0.31632646	-0.63196314	0.05505111	0.33830982	-0.67197358	-0.45716411	-0.11264758	-0.70114769	-0.20627209	-0.41137699
5709	57.08000000	-0.95033302	-0.10548358	0.04844490	-0.69980804	0.17436234	-0.62811691	-0.43936529	-0.70827494	-0.35595713	-0.85686521	-0.12525370	-0.06389659	-0.63059332	0.43539020	0.32350154	-0.63004730	0.06201200	0.33973405	-0.66979198	-0.43657257	-0.14182309	-0.70074915	-0.20363329	-0.41965863
5710	57.09000000	-0.94857995	-0.10189503	0.04439593	-0.69472037	0.17438311	-0.62532366	-0.47283330	-0.69780503	-0.32544333	-0.85392870	-0.12150064	-0.05552964	-0.63236118	0.43168349	0.32787241	-0.62742909	0.07452975	0.33697265	-0.66330934	-0.41917235	-0.17550550	-0.70320136	-0.19520056	-0.41708997
5711	57.10000000	-0.94883178	-0.11086220	0.04702027	-0.69087329	0.17692432	-0.62529472	-0.50655193	-0.68672117	-0.29652507	-0.85028673	-0.12125692	-0.05746492	-0.62937989	0.43820776	0.32986690	-0.61643262	0.07704086	0.33858295	-0.65346508	-0.40989015	-0.20471008	-0.70342079	-0.19530707	-0.41992343
5712	57.11000000	-0.95269740	-0.11198340	0.04699572	-0.68919024	0.18091248	-0.62383653	-0.53664034	-0.66314617	-0.29477359	-0.85292129	-0.11745443	-0.05142905	-0.62340711	0.43569468	0.33169362	-0.61115749	0.09317392	0.35353352	-0.65267822	-0.38705792	-0.23610804	-0.70835035	-0.18815240	-0.42437942
5713	57.12000000	-0.95058097	-0.10759530	0.04916447	-0.68904130	0.18038246	-0.62815106	-0.57110303	-0.64008333	-0.29494689	-0.85425018	-0.11913214	-0.05831621	-0.62494959	0.44120647	0.33216327	-0.61167927	0.10263628	0.35277043	-0.65273814	-0.37570276	-0.26316258	-0.70798792	-0.18192034	-0.42653313
5714	57.13000000	-0.95050425	-0.10830351	0.04917705	-0.68698095	0.17895224	-0.62598550	-0.60553963	-0.61270377	-0.29266021	-0.85042105	-0.11539709	-0.05311547	-0.61190221	0.44905888	0.34011314	-0.61137785	0.10514646	0.35500037	-0.64798616	-0.36273241	-0.29031201	-0.70611714	-0.17736798	-0.43134778
